<svg xmlns="http://www.w3.org/2000/svg" width="387.853" viewBox="0 0 387.773 190.317" height="190.334" fill="#2196f3" xmlns:v="https://vecta.io/nano"><path d="M134.104 164c-9.855-13.912-9.672-33.584.448-49.549 3.144-4.99 10.853-12.195 26.367-24.643 10.652-8.546 18.193-17.069 21.838-24.678 5.889-12.386 7.392-4.003 1.937 10.789-2.776 7.526-4.095 10.18-15.702 31.574-6.444 11.876-9.338 18.771-10.247 24.434-.173 1.072-.72 1.926-1.214 1.897-1.623-.095-1.746-7.094-.295-16.473l1.432-9.216-5.557 6.173c-41.881 46.524 29.627 85.561 84.533 46.157 9.293-6.671 112.28-105.716 112.504-108.197.134-1.525 2.522-6.14 5.568-10.765 6.216-9.471 18.969-17.555 24.405-15.498 15.301 5.847 6.205 28.089-13.83 34.051l-5.486 1.613-37.841 36.672c-64.069 62.089-75.129 72.379-83.03 77.239-38.041 23.485-84.479 18.382-105.747-11.621zm18.928 10.854c18.282 9.704 36.987 11.795 54.185 6.071 6.378-2.122 4.07-2.448-4.866-.687-13.429 2.646-25.437 1.509-39.938-3.772-10.649-3.881-15.352-7.418-22.337-16.798-3.236-4.345-4.062-3.826-1.267.796 2.858 4.726 10.407 12.365 14.222 14.39zm-18.002-41.61c1.406-5.536 9.89-18.177 18.575-27.673 8.124-8.884 5.301-7.662-4.712 2.041-8.618 8.351-13.386 16.425-14.905 25.235-.997 5.785-.384 6.018 1.044.396zm171.412-28.1c41.467-40.113 46.013-44.847 44.547-46.385-.485-.509-8.128 6.607-24.191 22.524l-52.751 52.169c-24.996 24.681-27.877 27.732-19.698 20.865 5.267-4.423 28.714-26.554 52.101-49.178zm56.137-59.335c3.861-1.66 7.393-3.381 7.849-3.824 1.316-1.279-.269-2.224-2.218-1.322-1.241.574-2.372.191-3.776-1.281-2.3-2.413-3.075-1.946-7.253 4.383-3.525 5.339-2.855 5.593 5.398 2.045zm17.816-4.431c1.516-1.444 2.585-1.86 3.029-1.177 1.298 1.995 2.574-.751 2.193-4.72-.324-3.387-4.438-8.72-6.33-8.209-.09.024-1.421.216-2.958.425s-3.245.829-3.796 1.377c-.808.803-.64.922.866.611 3.955-.816 5.672 6.797 2.265 10.045-.773.737-.577 1.494.636 2.471 1.435 1.154 2.175 1.006 4.094-.823zM258.68 28.287c9.378 14.223 8.493 33.827-2.214 49.38-3.328 4.862-11.307 11.768-27.293 23.621-10.976 8.138-18.834 16.364-22.757 23.819-6.341 12.136-7.548 3.725-1.556-10.825 3.049-7.403 4.466-10.002 16.855-30.913 6.878-11.608 10.023-18.379 11.136-23.991.212-1.063.79-1.894 1.284-1.848 1.622.153 1.496 7.134-.292 16.432l-1.763 9.136 5.787-5.955c43.614-44.878-26.633-86.359-83.043-49.046-9.547 6.317-116.25 101.363-116.563 103.828-.189 1.516-2.746 6.031-5.961 10.532-6.564 9.219-19.629 16.821-25.001 14.575-15.12-6.378-5.215-28.225 15.069-33.45l5.554-1.411L67.139 86.97c66.397-59.6 77.844-69.462 85.932-74.022 38.947-22.049 85.287-15.296 105.526 15.376zm-18.576-11.499c-17.97-10.329-36.635-13.085-54.067-7.995-6.465 1.887-4.165 2.295 4.851.859 13.548-2.156 25.537-.592 39.877 5.193 10.53 4.251 15.116 7.945 21.78 17.547 3.087 4.448 3.933 3.96 1.297-.748-2.695-4.814-9.986-12.7-13.736-14.856zm16.552 42.126c-1.606 5.468-10.556 17.767-19.594 26.922-8.455 8.565-5.584 7.448 4.793-1.865 8.931-8.016 13.996-15.894 15.831-24.623 1.205-5.732.599-5.986-1.032-.432zM83.931 80.782C40.96 119.284 36.237 123.84 37.65 125.426c.468.525 8.378-6.295 25.038-21.587l54.706-50.116c25.92-23.709 28.915-26.647 20.477-20.094-5.434 4.22-29.712 25.442-53.948 47.158zM25.578 137.92c-3.927 1.517-7.527 3.105-8 3.531-1.364 1.228.19 2.227 2.175 1.398 1.264-.528 2.383-.106 3.737 1.413 2.218 2.488 3.012 2.05 7.422-4.109 3.722-5.196 3.06-5.474-5.335-2.232zm-18.007 3.779c-1.57 1.385-2.656 1.761-3.076 1.064-1.229-2.036-2.605.657-2.365 4.627.204 3.388 4.135 8.853 6.05 8.411.091-.021 1.431-.164 2.979-.317s3.28-.71 3.852-1.236c.838-.772.674-.896-.846-.64-3.992.672-5.44-6.979-1.911-10.095.801-.707.632-1.468-.55-2.486-1.396-1.202-2.143-1.081-4.131.673z"/></svg>